Coordinates
version=1
nRows=15
nColumns=34
inDegrees=yes

Units are S.I. units (second, meters, Newtons, ...)
If the header above contains a line with 'inDegrees', this indicates whether rotational values are in degrees (yes) or radians (no).

endheader
time	pelvis_tilt	pelvis_list	pelvis_rotation	pelvis_tx	pelvis_ty	pelvis_tz	hip_flexion_r	hip_adduction_r	hip_rotation_r	knee_angle_r	ankle_angle_r	subtalar_angle_r	mtp_angle_r	hip_flexion_l	hip_adduction_l	hip_rotation_l	knee_angle_l	ankle_angle_l	subtalar_angle_l	mtp_angle_l	lumbar_extension	lumbar_bending	lumbar_rotation	arm_flex_r	arm_add_r	arm_rot_r	elbow_flex_r	pro_sup_r	arm_flex_l	arm_add_l	arm_rot_l	elbow_flex_l	pro_sup_l
      5.68333330	    -33.99647560	    -31.82296631	     14.08939739	     -2.21413250	      0.96178203	      0.03202991	      7.63814102	     -9.37892495	    -22.10028841	      7.90126754	     -5.08838617	      3.46106662	      0.00000000	     70.56624686	    -14.55195037	     15.40444981	     30.15344353	    -13.94348909	    -25.42583941	      0.00000000	     -2.71039981	    -29.01857835	     31.56499805	   -131.79671444	   -201.53257128	    224.75717209	     23.80202952	    109.51280209	   -524.89085044	   -156.08387424	   -171.41370657	     60.98339656	     89.31396271
      5.70000000	    -35.00439054	    -31.48846250	     13.13282104	     -2.20154279	      0.96299990	      0.03227838	      9.13993987	     -9.47645245	    -24.41655354	      6.49478067	     -4.50935113	      3.44328149	      0.00000000	     70.21685533	    -15.20494151	     14.51851920	     29.88180161	    -14.21054685	    -25.99975506	      0.00000000	     -1.17341462	    -29.21489903	     32.86571321	   -135.04788183	   -203.07969985	    227.67402803	     23.93676521	    109.05709405	   -525.53190133	   -156.01351740	   -172.46275452	     59.79367729	     88.37283276
      5.71666670	    -35.91629456	    -31.10661944	     12.05375960	     -2.19180221	      0.96408608	      0.03392247	     10.95366952	     -9.54503025	    -26.51414929	      5.32456290	     -4.22207911	      3.53193870	      0.00000000	     69.73556946	    -15.91140125	     13.97289676	     29.52286129	    -14.01035579	    -26.18241411	      0.00000000	      0.26591690	    -28.91787481	     33.43176257	   -136.69484107	   -203.03422790	    232.21238400	     25.35104356	    107.86499759	   -524.62948888	   -157.39401339	   -171.56975725	     61.96728215	     87.19204141
      5.73333330	    -36.28783821	    -30.64036032	     11.30637642	     -2.18445509	      0.96638542	      0.03591102	     12.71558559	     -9.58983872	    -27.99495507	      4.64856543	     -3.69596903	      2.97302847	      0.00000000	     68.86749186	    -16.61278569	     13.26854048	     29.01273475	    -13.60823087	    -25.83256775	      0.00000000	      1.12611733	    -28.20147293	     33.13691857	   -137.22693610	   -202.40279414	    233.95168916	     26.52852770	    106.62315385	   -522.34199335	   -159.88374824	   -168.55499924	     65.70872300	     86.86222748
      5.75000000	    -36.35831352	    -30.15231583	     11.03232197	     -2.17857278	      0.96907254	      0.03631766	     14.29573616	     -9.65007039	    -29.31714907	      4.21675501	     -3.32485893	      2.01510151	      0.00000000	     67.87859682	    -17.02007421	     12.45860426	     28.54195414	    -13.11460972	    -25.13903614	      0.00000000	      1.82525344	    -27.39022391	     32.48031860	   -137.29625988	   -200.96495833	    234.72272584	     28.51428919	    104.92622475	   -519.09431261	   -162.56144873	   -163.80840315	     68.81645653	     86.68319898
      5.76666670	    -36.08281787	    -29.58822341	     11.17150702	     -2.17317245	      0.97183005	      0.03513877	     15.45251631	     -9.73539235	    -30.35846062	      3.84202712	     -3.31298894	      1.02370298	      0.00000000	     66.63002171	    -17.19255665	     11.43757756	     28.06017282	    -12.60954006	    -24.29689198	      0.00000000	      2.40254992	    -26.64555654	     32.15980950	   -137.28815184	   -198.78512393	    233.71603135	     30.53917622	    102.34496914	   -515.06323385	   -165.26448981	   -157.99951001	     69.46366024	     86.27148557
      5.78333330	    -35.50428872	    -28.80042220	     11.43382857	     -2.16739839	      0.97589385	      0.03359705	     16.26607820	     -9.90426143	    -31.14547934	      3.60365401	     -3.90061456	      0.52763411	      0.00000000	     64.91677164	    -17.26438936	     10.19842432	     27.41425600	    -12.29960338	    -23.39213404	      0.00000000	      2.76306067	    -26.17571784	     32.01888125	   -137.18225400	   -196.58743489	    230.67536498	     31.72725447	     99.61173887	   -511.95779569	   -167.54534484	   -153.91222147	     68.52108489	     85.39020493
      5.80000000	    -34.80060267	    -27.86030860	     11.62315274	     -2.16111885	      0.98118229	      0.03198410	     16.84580196	    -10.01752860	    -31.69247096	      3.27551322	     -5.22730002	      0.63532620	      0.00000000	     63.04333120	    -17.31135545	      8.67610825	     26.95963336	    -11.73460602	    -22.52856652	      0.00000000	      2.99815334	    -26.03649075	     31.78433200	   -136.93436268	   -194.57788396	    227.34733712	     32.18977815	     97.64540473	   -511.70099453	   -167.90235802	   -152.53239041	     68.10180427	     84.31021831
      5.81666670	    -33.80946688	    -26.62182774	     11.90581483	     -2.15529787	      0.98720421	      0.03010597	     17.26413667	    -10.39248939	    -32.03275740	      3.48840837	     -7.00516517	      0.95729293	      0.00000000	     60.51411339	    -17.09743477	      7.17992665	     26.09055846	    -11.68976219	    -22.08303681	      0.00000000	      3.10427712	    -26.19572558	     32.09184420	   -136.13099606	   -191.92424336	    225.80940131	     31.95605083	     97.21033764	   -514.72853578	   -166.05240848	   -153.41847447	     66.81882946	     83.95894073
      5.83333330	    -32.22595638	    -25.58556474	     12.52076379	     -2.14985666	      0.99298187	      0.02890886	     17.03563334	    -10.24743400	    -32.36307749	      3.54259001	     -9.29662360	      1.36504369	      0.00000000	     57.71815374	    -17.03592024	      5.71533989	     25.45545577	    -11.04408437	    -21.39415696	      0.00000000	      2.81167819	    -26.07787200	     32.33203367	   -135.11343037	   -188.84137563	    223.12698428	     32.00324486	     96.80804004	   -520.38342697	   -162.93553363	   -157.50005486	     61.86271317	     83.38814404
      5.85000000	    -30.59280762	    -24.55683662	     13.40754273	     -2.14225768	      0.99617836	      0.02939887	     16.61017846	     -9.99741553	    -32.67253017	      3.54484038	    -11.12709159	      2.00276102	      0.00000000	     54.99038134	    -16.84795146	      4.53231838	     24.95046204	    -10.64798867	    -21.04244493	      0.00000000	      2.69517005	    -25.90965648	     31.71040168	   -133.70409460	   -185.71207465	    220.64514250	     32.27670911	     96.76204881	   -526.46148976	   -159.13126785	   -162.69794609	     52.33047781	     82.80546050
      5.86666670	    -28.95718383	    -23.61977687	     14.34121294	     -2.13171375	      0.99825881	      0.03117875	     16.12352433	     -9.51974390	    -32.78054613	      3.41114318	    -12.33654406	      2.85350817	      0.00000000	     52.37918159	    -16.73081059	      3.83603215	     24.64126654	    -10.15823022	    -20.74588780	      0.00000000	      2.50296531	    -25.79426192	     29.84254678	   -131.71638521	   -183.14217592	    217.74781579	     32.21418169	     96.74940577	   -530.86354085	   -155.93188925	   -167.37621582	     41.19429671	     82.23449745
      5.88333330	    -27.42648579	    -22.76436912	     14.82283412	     -2.12080943	      0.99982592	      0.03341136	     15.82149882	     -8.85238075	    -32.64304563	      3.21721373	    -12.45784076	      3.59496525	      0.00000000	     49.86232038	    -16.93787682	      3.51357966	     24.45945028	     -9.39418717	    -20.46039667	      0.00000000	      2.42715697	    -25.64753725	     27.61115984	   -129.58408798	   -181.19102388	    213.91719834	     31.95109387	     96.37598701	   -533.31971578	   -153.91465225	   -170.17444102	     33.19230461	     81.91609874
      5.90000000	    -25.90752804	    -22.07097678	     14.95758062	     -2.11348311	      1.00317818	      0.03555946	     15.81972591	     -7.96517332	    -32.12901351	      3.06564699	    -12.05370633	      4.18735868	      0.00000000	     47.55200947	    -17.32837407	      3.71094477	     24.48893091	     -8.50025925	    -20.16106284	      0.00000000	      2.25071282	    -25.00964257	     25.53924081	   -127.94300186	   -179.33227682	    207.76667500	     32.43920214	     95.23715420	   -534.96951866	   -152.83062431	   -171.80089790	     30.76627449	     81.79936628
      5.91666670	    -24.61925970	    -21.58042364	     14.92140098	     -2.10896764	      1.00600054	      0.03851425	     16.35327403	     -6.95958796	    -31.16267341	      3.09471182	    -11.09518114	      4.38173845	      0.00000000	     45.68966319	    -17.84384261	      4.00957346	     24.50552718	     -7.94825294	    -19.93304593	      0.00000000	      2.02137989	    -24.21869672	     23.24399559	   -126.38260949	   -177.25415847	    202.05764996	     34.23534426	     94.06624895	   -535.94277367	   -152.03641067	   -172.81995948	     31.80685912	     81.67625116
